# xmcd
#
# Track frame offsets: 
#        150
#        19702
#        39124
#        57265
#        76534
#        96439
#        117954
#        126708
#        149352
#        172358
#        188045
#        206151
#        236301
#
# Disc length: 4440 seconds
#
# Revision: 2
# Processed by: cddbd v1.5.1PL0 Copyright (c) Steve Scherf et al.
# Submitted via: ExactAudioCopy v0.95a5
#
DISCID=b311560d
DTITLE=Sigvard Dagsland - Underlig Frihet
DYEAR=2004
DGENRE=Vocal
TTITLE0=Overveldende
TTITLE1=Forandra
TTITLE2=Blåsenborg
TTITLE3=Underlig Frihet
TTITLE4=Ka e du redd for
TTITLE5=Någe magisk
TTITLE6=Drømmehjulet
TTITLE7=Om og om og om igjen
TTITLE8=Mal meg ein himmel blå
TTITLE9=Bak gardiner
TTITLE10=Ord kom
TTITLE11=Mens dype klokker slår
TTITLE12=Data Track
EXTD=
EXTT0=
EXTT1=
EXTT2=
EXTT3=
EXTT4=
EXTT5=
EXTT6=
EXTT7=
EXTT8=
EXTT9=
EXTT10=
EXTT11=
EXTT12=
PLAYORDER=
